<svg class="animated" id="freepik_stories-man-thinking" xmlns="http://www.w3.org/2000/svg" viewBox="0 0 500 500" version="1.1" xmlns:xlink="http://www.w3.org/1999/xlink" xmlns:svgjs="http://svgjs.com/svgjs"><style>svg#freepik_stories-man-thinking:not(.animated) .animable {opacity: 0;}svg#freepik_stories-man-thinking.animated #freepik--background-complete--inject-73 {animation: 1s 1 forwards cubic-bezier(.36,-0.01,.5,1.38) slideDown;animation-delay: 0s;}svg#freepik_stories-man-thinking.animated #freepik--Plant--inject-73 {animation: 1s 1 forwards cubic-bezier(.36,-0.01,.5,1.38) zoomOut;animation-delay: 0s;}svg#freepik_stories-man-thinking.animated #freepik--speech-bubble--inject-73 {animation: 1s 1 forwards cubic-bezier(.36,-0.01,.5,1.38) zoomOut;animation-delay: 0s;}svg#freepik_stories-man-thinking.animated #freepik--Screens--inject-73 {animation: 1s 1 forwards cubic-bezier(.36,-0.01,.5,1.38) slideUp;animation-delay: 0s;}svg#freepik_stories-man-thinking.animated #freepik--Character--inject-73 {animation: 1s 1 forwards cubic-bezier(.36,-0.01,.5,1.38) slideDown;animation-delay: 0s;}            @keyframes slideDown {                0% {                    opacity: 0;                    transform: translateY(-30px);                }                100% {                    opacity: 1;                    transform: translateY(0);                }            }                    @keyframes zoomOut {                0% {                    opacity: 0;                    transform: scale(1.5);                }                100% {                    opacity: 1;                    transform: scale(1);                }            }                    @keyframes slideUp {                0% {                    opacity: 0;                    transform: translateY(30px);                }                100% {                    opacity: 1;                    transform: inherit;                }            }        </style><g id="freepik--background-complete--inject-73" class="animable animator-active" style="transform-origin: 256.612px 238.11px;"><path d="M129,192.49a19,19,0,0,1,4.59-2l.94-4.54,7.67-.13,1.1,4.5a19.14,19.14,0,0,1,4.66,1.83l3.87-2.54,5.52,5.33-2.4,4a19,19,0,0,1,2,4.59l4.54.94.13,7.67-4.5,1.1a18.36,18.36,0,0,1-1.83,4.66l2.54,3.87-5.33,5.52-4-2.4a18.93,18.93,0,0,1-4.58,2l-.95,4.54-7.67.13-1.1-4.5a18.3,18.3,0,0,1-4.65-1.83l-3.88,2.54-5.52-5.33,2.41-4a18.58,18.58,0,0,1-2-4.58L116,212.9l-.13-7.67,4.5-1.1a19.07,19.07,0,0,1,1.83-4.65l-2.54-3.88,5.33-5.52,4,2.41Zm4.09,10.21a8.23,8.23,0,1,0,11.63-.2A8.24,8.24,0,0,0,133.08,202.7Z" style="fill: rgb(224, 224, 224); transform-origin: 138.745px 208.69px;" id="el35qs3gb1u9v" class="animable"></path><rect x="46.32" y="267.05" width="15.32" height="47.86" style="fill: rgb(245, 245, 245); transform-origin: 53.98px 290.98px;" id="elpcizaq4w41r" class="animable"></rect><rect x="69.2" y="277.98" width="15.32" height="36.93" style="fill: rgb(245, 245, 245); transform-origin: 76.86px 296.445px;" id="elhksec7yefl9" class="animable"></rect><rect x="90.38" y="292.98" width="15.32" height="21.93" style="fill: rgb(245, 245, 245); transform-origin: 98.04px 303.945px;" id="elj9iszp1nej8" class="animable"></rect><path d="M437.28,402.17a26.39,26.39,0,1,0-37.64,23.88v6.66h23.13s.14-3.74.2-7.08A26.39,26.39,0,0,0,437.28,402.17Z" style="fill: rgb(245, 245, 245); transform-origin: 410.89px 404.249px;" id="ely7pvn6t2qh9" class="animable"></path><path d="M421,437H401.13a1.49,1.49,0,0,1-1.49-1.49h0a1.49,1.49,0,0,1,1.49-1.49H421a1.49,1.49,0,0,1,1.49,1.49h0A1.49,1.49,0,0,1,421,437Z" style="fill: rgb(224, 224, 224); transform-origin: 411.065px 435.51px;" id="eljvtujgls7u" class="animable"></path><path d="M421,438.29H401.13a1.49,1.49,0,0,0,0,3h2.18l2.9,5.51a1.9,1.9,0,0,0,1.69,1H415a1.91,1.91,0,0,0,1.7-1l2.81-5.49H421a1.49,1.49,0,1,0,0-3Z" style="fill: rgb(224, 224, 224); transform-origin: 411.065px 443.045px;" id="els3woogweymc" class="animable"></path><path d="M416.33,447.23s-.52-.18-1.36-.42a11,11,0,0,0-6.71.19,13.91,13.91,0,0,1-1.34.5,4,4,0,0,1,1.26-.71,9.62,9.62,0,0,1,3.41-.73,9.51,9.51,0,0,1,3.45.53A3.91,3.91,0,0,1,416.33,447.23Z" style="fill: rgb(250, 250, 250); transform-origin: 411.625px 446.778px;" id="eld8ydles14nc" class="animable"></path><path d="M419.55,441.34c0,.09-3.59.16-8,.16s-8-.07-8-.16,3.59-.16,8-.16S419.55,441.25,419.55,441.34Z" style="fill: rgb(250, 250, 250); transform-origin: 411.55px 441.34px;" id="elcsylco1scw" class="animable"></path><path d="M418.31,443.69a9.77,9.77,0,0,1-1.95.2c-1.21.08-2.89.15-4.74.18s-3.53,0-4.74,0a10,10,0,0,1-2-.15,12.75,12.75,0,0,1,2-.08l4.74-.06,4.73-.08A14.71,14.71,0,0,1,418.31,443.69Z" style="fill: rgb(250, 250, 250); transform-origin: 411.595px 443.873px;" id="elo66iwl75io" class="animable"></path><path d="M433.23,394.23a5,5,0,0,1,.53,1.34,21.26,21.26,0,0,1,.8,3.83,23.8,23.8,0,0,1-10.25,22.51,21,21,0,0,1-3.42,1.91,5.7,5.7,0,0,1-1.36.49c0-.12,1.88-.84,4.52-2.76a24.45,24.45,0,0,0,10.06-22.1A51.68,51.68,0,0,0,433.23,394.23Z" style="fill: rgb(255, 255, 255); transform-origin: 427.129px 409.27px;" id="elznpo1t5x0t" class="animable"></path><path d="M416.07,381.39c-.53-1.81-2.62-3-5.17-3.05h0a29,29,0,0,0-12,3.74A21.14,21.14,0,0,0,389,395.65a7,7,0,0,0-.11,3.19,3.31,3.31,0,0,0,2.1,2.43,3.37,3.37,0,0,0,3-.75,8.58,8.58,0,0,0,1.94-2.55,66,66,0,0,1,3.59-6.43,9.78,9.78,0,0,1,5.8-4.29c1.58-.35,3-.38,4.6-.72,2-.43,3.24-.39,4.62-1.25A4.28,4.28,0,0,0,416.07,381.39Z" style="fill: rgb(255, 255, 255); transform-origin: 402.433px 389.85px;" id="elutdtbt8wzb" class="animable"></path><path d="M394.27,407.16a3,3,0,1,1-3-3A3,3,0,0,1,394.27,407.16Z" style="fill: rgb(255, 255, 255); transform-origin: 391.27px 407.16px;" id="elepylbim5dbr" class="animable"></path><path d="M419.07,432.79s-.07-.35-.16-1-.23-1.75-.38-3c-.33-2.68-.78-6.42-1.33-11-.24-2.34-.63-4.84-.83-7.63a2.87,2.87,0,0,1,.75-2.05,1.69,1.69,0,0,1,2.22-.25,3.11,3.11,0,0,1,1.13,2,5.06,5.06,0,0,1-.3,2.34,6.33,6.33,0,0,1-3.31,3.46,5.64,5.64,0,0,1-5-.16,7,7,0,0,1-3.35-3.94,6.09,6.09,0,0,1-.32-2.69,3.1,3.1,0,0,1,.5-1.33,1.7,1.7,0,0,1,1.29-.72,1.84,1.84,0,0,1,1.35.59,3.62,3.62,0,0,1,.79,1.16,6.84,6.84,0,0,1,.49,2.65,6.45,6.45,0,0,1-1.83,4.83,4.67,4.67,0,0,1-4.79,1.16A7.2,7.2,0,0,1,402.5,414a10.09,10.09,0,0,1-.92-2.14,4.91,4.91,0,0,1-.24-2.29,2,2,0,0,1,.54-1.07,1.06,1.06,0,0,1,1.22-.13,3,3,0,0,1,1,1.92,39.23,39.23,0,0,1,1.41,7.55,40,40,0,0,1-.57,11.06,29.63,29.63,0,0,1-1,3.93s.06-.36.23-1,.39-1.66.62-2.95a40.64,40.64,0,0,0,.42-11,39.21,39.21,0,0,0-1.44-7.46c-.19-.65-.37-1.38-.88-1.69a.68.68,0,0,0-.78.08,1.55,1.55,0,0,0-.41.86,4.37,4.37,0,0,0,.24,2.09,9.58,9.58,0,0,0,.89,2.06,6.79,6.79,0,0,0,3.3,3.07,4.25,4.25,0,0,0,4.35-1.08,6,6,0,0,0,1.69-4.5,6.5,6.5,0,0,0-.46-2.48c-.32-.74-.95-1.5-1.71-1.48s-1.27.86-1.37,1.67a5.83,5.83,0,0,0,.3,2.48,6.59,6.59,0,0,0,3.14,3.69,5.17,5.17,0,0,0,4.58.16c1.67.35,2.65-1.53,3.1-3.21a4.68,4.68,0,0,0,.29-2.15,2.69,2.69,0,0,0-1-1.77,1.3,1.3,0,0,0-1.72.2,2.55,2.55,0,0,0-.65,1.79c.19,2.69.55,5.27.78,7.58.49,4.59.89,8.33,1.18,11q.18,1.86.3,3C419.06,432.43,419.07,432.79,419.07,432.79Z" style="fill: rgb(224, 224, 224); transform-origin: 410.898px 419.825px;" id="el78ze6ppw8pc" class="animable"></path><path d="M423,66.94l11.67,1.14s.95-9.8,11.15-9A9.48,9.48,0,0,1,454.38,66a10.52,10.52,0,0,1-1.75,9.37c-2.3,3.07-7,5.94-14.69,3.79l-2.53,26L447,106.28l1.5-15.41S465,88.26,466.78,70.43c1.66-17.07-13.86-22.58-21.82-23.35C440,46.59,424.78,46.34,423,66.94Z" style="fill: rgb(245, 245, 245); transform-origin: 444.952px 76.6124px;" id="el9fuil0jk02v" class="animable"></path><g id="elinoreyv50lo"><rect x="434.68" y="110.73" width="10.99" height="11.76" style="fill: rgb(245, 245, 245); transform-origin: 440.175px 116.61px; transform: rotate(-84.44deg);" class="animable"></rect></g><path d="M418.35,66.49,430,67.63s1-9.8,11.16-9a9.49,9.49,0,0,1,8.55,6.92A10.49,10.49,0,0,1,448,74.93c-2.3,3.07-6.92,5.61-14.65,3.46l-2.56,26.31,11.54,1.12,1.5-15.41S460.39,87.8,462.12,70c1.66-17.06-13.25-22.51-19.8-23.15C437.31,46.33,420.13,45.88,418.35,66.49Z" style="fill: rgb(235, 235, 235); transform-origin: 440.299px 76.2557px;" id="el3l6utbzeu72" class="animable"></path><g id="elkmmtjhgivmj"><rect x="430.03" y="110.27" width="10.99" height="11.76" style="fill: rgb(235, 235, 235); transform-origin: 435.525px 116.15px; transform: rotate(-84.44deg);" class="animable"></rect></g><path d="M248.06,38.85a18.84,18.84,0,0,1,4.67-1.79l1.15-4.49,7.67.22.9,4.54a19,19,0,0,1,4.56,2L271,37l5.27,5.57-2.58,3.85a18.81,18.81,0,0,1,1.78,4.67L280,52.25l-.21,7.67-4.55.9a18.79,18.79,0,0,1-2,4.56l2.36,4L270,74.64l-3.85-2.58a18.66,18.66,0,0,1-4.67,1.78l-1.15,4.5-7.66-.22-.9-4.55a18.12,18.12,0,0,1-4.57-2l-4,2.37-5.27-5.57,2.58-3.85a18.76,18.76,0,0,1-1.79-4.68l-4.49-1.14.21-7.67,4.55-.9a18.79,18.79,0,0,1,2-4.56l-2.36-4,5.57-5.27,3.85,2.58Zm3.62,10.39a8.23,8.23,0,1,0,11.63.32A8.23,8.23,0,0,0,251.68,49.24Z" style="fill: rgb(224, 224, 224); transform-origin: 257.115px 55.455px;" id="elit814lr1b7" class="animable"></path><path d="M202.81,33.17a13.44,13.44,0,0,1,3.26-1.42l.67-3.23,5.47-.1.78,3.21a13.63,13.63,0,0,1,3.32,1.3l2.76-1.81,3.93,3.8-1.71,2.82A13.73,13.73,0,0,1,222.71,41l3.23.67.09,5.46-3.2.79a13.2,13.2,0,0,1-1.31,3.31L223.33,54l-3.79,3.93-2.82-1.71a13.29,13.29,0,0,1-3.27,1.42l-.67,3.23-5.46.1-.79-3.21a13.24,13.24,0,0,1-3.32-1.3l-2.76,1.81-3.93-3.8,1.72-2.82a13.06,13.06,0,0,1-1.42-3.26l-3.24-.68-.09-5.46,3.2-.79A13.59,13.59,0,0,1,198,38.15l-1.81-2.76L200,31.46l2.83,1.71Zm2.91,7.28A5.86,5.86,0,1,0,214,40.3,5.85,5.85,0,0,0,205.72,40.45Z" style="fill: rgb(245, 245, 245); transform-origin: 209.76px 44.695px;" id="eljbxu75i04bk" class="animable"></path><path d="M294,191.32a13.84,13.84,0,0,1,3.26-1.42l.68-3.23,5.46-.09.79,3.2a13.2,13.2,0,0,1,3.31,1.31l2.76-1.81,3.93,3.79-1.71,2.82a13.68,13.68,0,0,1,1.42,3.27l3.23.67.1,5.47-3.21.78a13.63,13.63,0,0,1-1.3,3.32l1.81,2.76-3.8,3.93-2.82-1.71a13.31,13.31,0,0,1-3.27,1.41l-.67,3.24-5.46.09-.79-3.2a13.59,13.59,0,0,1-3.31-1.31l-2.76,1.81-3.93-3.79,1.71-2.82a13.29,13.29,0,0,1-1.42-3.27l-3.23-.67-.1-5.47,3.21-.78a13.24,13.24,0,0,1,1.3-3.32l-1.81-2.76,3.8-3.93,2.82,1.71Zm2.91,7.28a5.86,5.86,0,1,0,8.29-.15A5.86,5.86,0,0,0,296.86,198.6Z" style="fill: rgb(245, 245, 245); transform-origin: 300.955px 202.85px;" id="els6q2szjh7ud" class="animable"></path></g><g id="freepik--Desk--inject-73" class="animable" style="transform-origin: 250px 468.66px;"><path d="M461.82,468.66c0,.15-94.84.26-211.81.26s-211.83-.11-211.83-.26S133,468.4,250,468.4,461.82,468.52,461.82,468.66Z" style="fill: rgb(38, 50, 56); transform-origin: 250px 468.66px;" id="elpheizhd2rfn" class="animable"></path></g><g id="freepik--Plant--inject-73" class="animable" style="transform-origin: 74.9549px 407.677px;"><polygon points="45.95 429.87 53.59 468.51 93.31 468.48 101.7 430.51 45.95 429.87" style="fill: rgb(26, 24, 24); transform-origin: 73.825px 449.19px;" id="els56wr42nm1" class="animable"></polygon><path d="M41.39,424v5.39a3.3,3.3,0,0,0,3.31,3.29h57.5a3.29,3.29,0,0,0,3.3-3.29V424a3,3,0,0,0-3-3H44.38A3,3,0,0,0,41.39,424Z" style="fill: rgb(26, 24, 24); transform-origin: 73.445px 426.84px;" id="els896mpmb3fs" class="animable"></path><g id="elw8kqmjv438"><g style="opacity: 0.4; transform-origin: 73.815px 435.885px;" class="animable"><polygon points="46.38 432.67 46.85 435.34 99.91 439.1 101.25 432.67 46.38 432.67" id="el56vskve1f0f" class="animable" style="transform-origin: 73.815px 435.885px;"></polygon></g></g><path d="M96.4,451.09c0,.14-10.28.26-23,.26s-23-.12-23-.26,10.27-.26,23-.26S96.4,450.94,96.4,451.09Z" style="fill: rgb(255, 255, 255); transform-origin: 73.4px 451.09px;" id="elahz3t0kksxk" class="animable"></path><path d="M96.7,454.3c0,.14-10.27.26-23,.26s-22.94-.12-22.94-.26S61.08,454,73.75,454,96.7,454.15,96.7,454.3Z" style="fill: rgb(255, 255, 255); transform-origin: 73.73px 454.28px;" id="el7o19yhuykoj" class="animable"></path><path d="M50.05,421.05s-22.36-25.66-19.87-26.59,22.35,13.3,22.35,13.3-17.07-38-13.66-40.82,21.42,33.7,21.42,33.7-2.79-53.18,0-53.79,13,53.18,13,53.18,15.22-49.17,19.56-49.17-4.65,47.31-4.65,47.31,18-30.3,20.8-26.28-12.73,36.79-12.73,36.79S119,389.82,119.9,392.3s-24.52,28.75-24.52,28.75Z" style="fill: rgb(69, 90, 100); transform-origin: 74.9549px 383.947px;" id="elutphmeii08j" class="animable"></path><path d="M46.93,382.4c.15-.07,4.12,8.4,8.85,18.91s8.46,19.09,8.3,19.16-4.12-8.4-8.85-18.91S46.77,382.47,46.93,382.4Z" style="fill: rgb(38, 50, 56); transform-origin: 55.505px 401.435px;" id="elks5p3ph65gp" class="animable"></path><path d="M65,387.13c.17,0,.83,7.45,1.47,16.67s1,16.69.86,16.7-.83-7.44-1.47-16.66S64.82,387.14,65,387.13Z" style="fill: rgb(38, 50, 56); transform-origin: 66.1584px 403.815px;" id="elxejubyvb" class="animable"></path><path d="M89.9,363.31a2.64,2.64,0,0,1-.13.61c-.14.45-.3,1-.5,1.69-.46,1.55-1.1,3.64-1.86,6.19-1.58,5.23-3.7,12.48-5.86,20.53s-3.94,15.38-5.19,20.7l-1.48,6.3c-.17.69-.31,1.25-.42,1.71a2.29,2.29,0,0,1-.19.59,2.82,2.82,0,0,1,.07-.62c.08-.46.18-1,.31-1.73.27-1.5.71-3.67,1.29-6.34,1.14-5.35,2.86-12.71,5-20.77s4.35-15.29,6-20.49c.84-2.61,1.55-4.7,2.06-6.15l.6-1.65A2.35,2.35,0,0,1,89.9,363.31Z" style="fill: rgb(38, 50, 56); transform-origin: 82.085px 392.47px;" id="eluymj7gmlmam" class="animable"></path><path d="M100.67,390.73c.14.09-4.23,6.57-9.75,14.47s-10.11,14.22-10.25,14.12,4.23-6.58,9.75-14.47S100.53,390.63,100.67,390.73Z" style="fill: rgb(38, 50, 56); transform-origin: 90.67px 405.025px;" id="el2aaox7dpoat" class="animable"></path><path d="M57.59,420.51a8.76,8.76,0,0,1-2-1.39,52.89,52.89,0,0,1-4.26-3.92,52.1,52.1,0,0,1-3.82-4.33,8,8,0,0,1-1.34-2c.14-.11,2.46,2.69,5.6,5.89S57.71,420.37,57.59,420.51Z" style="fill: rgb(38, 50, 56); transform-origin: 51.8819px 414.688px;" id="el5vuk1m589b" class="animable"></path><path d="M71.17,410.31c.17,0,.52,2.36.79,5.29s.35,5.34.18,5.35-.52-2.35-.79-5.29S71,410.33,71.17,410.31Z" style="fill: rgb(38, 50, 56); transform-origin: 71.655px 415.63px;" id="eli31bdskrck" class="animable"></path></g><g id="freepik--speech-bubble--inject-73" class="animable" style="transform-origin: 88.3941px 82.3034px;"><path d="M45.56,71.41a41.38,41.38,0,0,1,52-31.82c22.36,6.44,35.2,30.91,27.77,53a41.09,41.09,0,0,1-12.41,18.31,7.31,7.31,0,0,1-.62.48l-.06,0a48,48,0,0,1-33.08,8.32,36.8,36.8,0,0,1-10.94-3.06A41.43,41.43,0,0,1,45.56,71.41Z" style="fill: rgb(255, 255, 255); transform-origin: 86.1203px 79.009px;" id="el8ge2941ts7" class="animable"></path><path d="M45.56,71.41s0,.22-.08.66-.15,1.1-.27,1.94a44.46,44.46,0,0,0-.27,7.52,43.21,43.21,0,0,0,2.43,11.62,41.74,41.74,0,0,0,8,13.48,36.33,36.33,0,0,0,3.16,3.17,39.42,39.42,0,0,0,3.62,3c.63.48,1.33.88,2,1.33l1,.66c.35.21.72.39,1.08.59l2.22,1.16c.76.35,1.55.68,2.35,1a43.37,43.37,0,0,0,21.59,1.71,48.25,48.25,0,0,0,11.32-3.38,49,49,0,0,0,5.45-2.77c.89-.52,1.76-1.08,2.63-1.65a17.81,17.81,0,0,0,2.39-2,40.43,40.43,0,0,0,12.28-22.34,38.74,38.74,0,0,0,.29-13.1,45.36,45.36,0,0,0-1.35-6.29c-.36-1-.71-2-1.06-3a11.56,11.56,0,0,0-.61-1.46l-.66-1.43a40.44,40.44,0,0,0-6.85-10.2l-1-1.13-1.1-1c-.75-.66-1.44-1.38-2.21-2a41.3,41.3,0,0,0-4.79-3.35,40.32,40.32,0,0,0-20.81-5.84,38.14,38.14,0,0,0-5,.27,17.67,17.67,0,0,0-2.42.38l-2.37.45c-1.52.46-3,.85-4.47,1.37l-2.1.86a14.15,14.15,0,0,0-2,.91,42,42,0,0,0-12.5,9.43,43.47,43.47,0,0,0-3.88,5.16l-.8,1.23A9.05,9.05,0,0,0,50,59.5l-1.17,2.31c-.18.37-.37.72-.53,1.07l-.4,1-.72,1.9a20.88,20.88,0,0,0-.94,3c-.23.82-.4,1.45-.52,1.89s-.19.65-.19.65,0-.23.14-.66l.46-1.91a21.93,21.93,0,0,1,.9-3.06l.7-1.92c.13-.34.26-.69.39-1.06s.35-.7.53-1.07l1.15-2.34a8.7,8.7,0,0,1,.69-1.21l.79-1.24a42.66,42.66,0,0,1,3.87-5.22,42.23,42.23,0,0,1,12.56-9.57,15.58,15.58,0,0,1,2-.93l2.11-.87c1.45-.53,3-.93,4.51-1.4l2.39-.46a20.17,20.17,0,0,1,2.45-.4,41.7,41.7,0,0,1,26.15,5.58,42.22,42.22,0,0,1,4.85,3.38c.78.61,1.48,1.34,2.24,2l1.11,1,1,1.14a41,41,0,0,1,6.94,10.32l.67,1.45a11.28,11.28,0,0,1,.62,1.48c.35,1,.71,2,1.07,3a45.08,45.08,0,0,1,1.37,6.37A38.91,38.91,0,0,1,127,87.15a40.92,40.92,0,0,1-12.44,22.63,18.49,18.49,0,0,1-2.46,2c-.88.58-1.75,1.15-2.66,1.66a49.83,49.83,0,0,1-16.94,6.2,43.92,43.92,0,0,1-21.82-1.78c-.81-.3-1.61-.63-2.38-1L66,115.7c-.36-.2-.74-.38-1.09-.59l-1-.68c-.68-.45-1.39-.86-2-1.34a41.79,41.79,0,0,1-3.64-3,36.91,36.91,0,0,1-3.17-3.22,41.69,41.69,0,0,1-8-13.62,43.06,43.06,0,0,1-2.35-11.71A42.76,42.76,0,0,1,45.1,74c.14-.84.25-1.48.33-1.94S45.56,71.41,45.56,71.41Z" style="fill: rgb(38, 50, 56); transform-origin: 86.1975px 78.9979px;" id="el48prk0fwui" class="animable"></path><path d="M117.62,119.65c.06,0,0-.63.32-1.7a7.11,7.11,0,0,1,2.59-3.77,6.89,6.89,0,0,1,6.48-.93,6.69,6.69,0,0,1,3.15,2.38,6.79,6.79,0,0,1,0,8,6.85,6.85,0,0,1-9.64,1.45,7.09,7.09,0,0,1-2.59-3.76c-.29-1.07-.26-1.71-.32-1.7a1.42,1.42,0,0,0,0,.45,5.62,5.62,0,0,0,.15,1.3,7,7,0,0,0,2.56,4,7.3,7.3,0,0,0,10.32-10.13,7.12,7.12,0,0,0-3.42-2.54,7.26,7.26,0,0,0-6.9,1.1,7,7,0,0,0-2.56,4,5.62,5.62,0,0,0-.15,1.3A1.52,1.52,0,0,0,117.62,119.65Z" style="fill: rgb(38, 50, 56); transform-origin: 124.833px 119.581px;" id="el6bnrdzvpywg" class="animable"></path></g><g id="freepik--suspension-points--inject-73" class="animable" style="transform-origin: 86.125px 79px;"><path d="M77.51,79a3.76,3.76,0,1,1-3.76-3.77A3.76,3.76,0,0,1,77.51,79Z" style="fill: rgb(38, 50, 56); transform-origin: 73.75px 78.99px;" id="elrhuroqol0p" class="animable"></path><path d="M89.89,79a3.77,3.77,0,1,1-3.77-3.77A3.76,3.76,0,0,1,89.89,79Z" style="fill: rgb(38, 50, 56); transform-origin: 86.12px 79px;" id="ele1djx69zwr" class="animable"></path><path d="M102.26,79a3.77,3.77,0,1,1-3.77-3.77A3.76,3.76,0,0,1,102.26,79Z" style="fill: rgb(38, 50, 56); transform-origin: 98.49px 79px;" id="elsy7c0o40ry" class="animable"></path></g><g id="freepik--Screens--inject-73" class="animable" style="transform-origin: 254.386px 213.476px;"><rect x="356.53" y="304.46" width="114.11" height="46.94" rx="9.91" style="fill: rgb(255, 255, 255); transform-origin: 413.585px 327.93px;" id="el8ycwwxfcmci" class="animable"></rect><path d="M460.73,351.4a12.28,12.28,0,0,0,3-.53,9.83,9.83,0,0,0,6.13-5.92,9,9,0,0,0,.6-2.95c.05-1.05,0-2.19,0-3.36q0-3.52,0-7.64t0-8.78c0-1.56,0-3.15,0-4.8a31.14,31.14,0,0,0-.21-5,9.78,9.78,0,0,0-6.88-7.39,21.14,21.14,0,0,0-5.67-.36h-6l-25.91,0-59.37,0a9.64,9.64,0,0,0-9.65,9.68q0,7.69,0,15.15v11a11.61,11.61,0,0,0,.35,3.5,9.74,9.74,0,0,0,4,5.48,9.3,9.3,0,0,0,3.1,1.34,13.43,13.43,0,0,0,3.36.27l48.49.06,32.69.08,8.89.05,2.31,0,.79,0-.79,0-2.31,0-8.89,0-32.69.09-48.49.05a13.67,13.67,0,0,1-3.47-.28,9.82,9.82,0,0,1-3.26-1.4,10.23,10.23,0,0,1-4.18-5.76,12.06,12.06,0,0,1-.37-3.63c0-1.21,0-2.42,0-3.64V314.4a10.17,10.17,0,0,1,10.17-10.2l59.37,0,25.91,0h8.89a10.64,10.64,0,0,1,2.87.4,10.13,10.13,0,0,1,7.13,7.7,12.58,12.58,0,0,1,.2,2.58v2.49c0,1.65,0,3.24,0,4.8q0,4.66,0,8.78t0,7.64c0,1.18,0,2.29,0,3.37a9.53,9.53,0,0,1-.64,3,10.06,10.06,0,0,1-3,4.16,9.9,9.9,0,0,1-3.31,1.79,10.09,10.09,0,0,1-2.27.42C461,351.41,460.73,351.4,460.73,351.4Z" style="fill: rgb(38, 50, 56); transform-origin: 413.564px 327.818px;" id="el9uydl6wjrk" class="animable"></path><path d="M450.89,331H398.64a3.51,3.51,0,0,1-3.51-3.51h0a3.51,3.51,0,0,1,3.51-3.5h52.25a3.51,3.51,0,0,1,3.51,3.5h0A3.51,3.51,0,0,1,450.89,331Z" style="fill: rgb(224, 224, 224); transform-origin: 424.765px 327.495px;" id="el0k3ih0og5mkq" class="animable"></path><rect x="372.49" y="319.8" width="16.25" height="16.25" rx="5.14" style="fill: rgb(26, 24, 24); transform-origin: 380.615px 327.925px;" id="elvtc83u24s0j" class="animable"></rect><polygon points="375 328.16 376.64 326.53 379.8 329.33 385.07 324.04 386.59 325.68 379.56 332.49 375 328.16" style="fill: rgb(255, 255, 255); transform-origin: 380.795px 328.265px;" id="elxkx4q3grulg" class="animable"></polygon><rect x="326.56" y="185.81" width="129.34" height="85.29" rx="7.87" style="fill: rgb(255, 255, 255); transform-origin: 391.23px 228.455px;" id="elgq70jgoh3e9" class="animable"></rect><path d="M448,271.11a1.87,1.87,0,0,1,.27,0,6.45,6.45,0,0,0,.79-.08A7.38,7.38,0,0,0,452,270a7.88,7.88,0,0,0,3.23-3.8c.83-1.87.48-4.28.54-6.89,0-10.53,0-25.75-.08-44.55,0-4.7,0-9.63,0-14.76v-3.89a23,23,0,0,0-.16-3.91,7.68,7.68,0,0,0-5-5.69,11,11,0,0,0-4.06-.43H415.34l-80.91,0a7.78,7.78,0,0,0-4.79,1.7,7.67,7.67,0,0,0-2.65,4.31,11.64,11.64,0,0,0-.17,2.59v28.55c0,13.53,0,26.58,0,39a8.62,8.62,0,0,0,.8,4.4,7.67,7.67,0,0,0,3,3.19,7.82,7.82,0,0,0,4.2,1.05h21.59l30.77,0,44.54.09,12.11.05,3.15,0,1.08,0s-.37,0-1.08,0l-3.15,0-12.11,0-44.54.08-30.77,0-17.14,0h-4.45a8.31,8.31,0,0,1-4.44-1.1,8.07,8.07,0,0,1-3.18-3.39,9.19,9.19,0,0,1-.85-4.61c0-12.44,0-25.49,0-39V194.67a11.8,11.8,0,0,1,.18-2.7,8.15,8.15,0,0,1,7.95-6.42l80.91,0h31.13a11.51,11.51,0,0,1,4.2.46,8.1,8.1,0,0,1,5.27,6,23.57,23.57,0,0,1,.16,4V200c0,5.13,0,10.06,0,14.76,0,18.8-.06,34-.08,44.55,0,1.31,0,2.56,0,3.72a8.16,8.16,0,0,1-.59,3.23,7.86,7.86,0,0,1-3.32,3.83,7.27,7.27,0,0,1-3,1A7.18,7.18,0,0,1,448,271.11Z" style="fill: rgb(38, 50, 56); transform-origin: 391.249px 228.321px;" id="el1rw53yo3sjw" class="animable"></path><rect x="402.1" y="235.34" width="7.07" height="19.75" rx="3.53" style="fill: rgb(26, 24, 24); transform-origin: 405.635px 245.215px;" id="elu2ryv2axwja" class="animable"></rect><rect x="343.07" y="232.48" width="7.07" height="22.61" rx="3.53" style="fill: rgb(26, 24, 24); transform-origin: 346.605px 243.785px;" id="el3mmu3osp1zz" class="animable"></rect><rect x="357.83" y="227.77" width="7.07" height="27.33" rx="3.53" style="fill: rgb(26, 24, 24); transform-origin: 361.365px 241.435px;" id="elgah2eyv376s" class="animable"></rect><rect x="372.58" y="229.26" width="7.07" height="25.83" rx="3.53" style="fill: rgb(26, 24, 24); transform-origin: 376.115px 242.175px;" id="elti929q8pu8o" class="animable"></rect><rect x="387.34" y="220.53" width="7.07" height="34.56" rx="3.53" style="fill: rgb(26, 24, 24); transform-origin: 390.875px 237.81px;" id="elwpv66f303w" class="animable"></rect><rect x="416.86" y="220.7" width="7.07" height="34.4" rx="3.53" style="fill: rgb(26, 24, 24); transform-origin: 420.395px 237.9px;" id="elugxel4wqhg" class="animable"></rect><path d="M435.15,232h0a3.53,3.53,0,0,0-3.53,3.54v16a3.53,3.53,0,0,0,3.53,3.53h0a3.53,3.53,0,0,0,3.53-3.53v-16A3.53,3.53,0,0,0,435.15,232Z" style="fill: rgb(26, 24, 24); transform-origin: 435.15px 243.535px;" id="el3b4m5wjhlyl" class="animable"></path><rect x="341.27" y="199.62" width="33.12" height="6.47" rx="2.92" style="fill: rgb(224, 224, 224); transform-origin: 357.83px 202.855px;" id="elhcw8kgkwata" class="animable"></rect><path d="M43.51,166.84h77.14a5.38,5.38,0,0,1,5.38,5.38v68.55a4.55,4.55,0,0,1-4.55,4.55H42.69a4.55,4.55,0,0,1-4.55-4.55V172.22A5.38,5.38,0,0,1,43.51,166.84Z" style="fill: rgb(255, 255, 255); transform-origin: 82.085px 206.08px;" id="elrdk1r3h2l5f" class="animable"></path><path d="M43.51,166.84h77.14a5.38,5.38,0,0,1,5.38,5.38v12.51a0,0,0,0,1,0,0H38.14a0,0,0,0,1,0,0V172.22A5.38,5.38,0,0,1,43.51,166.84Z" style="fill: rgb(224, 224, 224); transform-origin: 82.085px 175.785px;" id="elhqp0jys74s" class="animable"></path><path d="M52.53,176.73a3.2,3.2,0,1,1-3.2-3.27A3.23,3.23,0,0,1,52.53,176.73Z" style="fill: rgb(255, 255, 255); transform-origin: 49.3305px 176.66px;" id="elszajp7ti19" class="animable"></path><path d="M62.36,176.73a3.2,3.2,0,1,1-3.2-3.27A3.23,3.23,0,0,1,62.36,176.73Z" style="fill: rgb(255, 255, 255); transform-origin: 59.1605px 176.66px;" id="elbsfszqh9de" class="animable"></path><path d="M72.19,176.73a3.2,3.2,0,1,1-3.2-3.27A3.23,3.23,0,0,1,72.19,176.73Z" style="fill: rgb(255, 255, 255); transform-origin: 68.9905px 176.66px;" id="el5fk5eggu069" class="animable"></path><rect x="54.39" y="193.42" width="55.38" height="42.77" rx="5.47" style="fill: rgb(26, 24, 24); transform-origin: 82.08px 214.805px;" id="elpyzugxv7vs" class="animable"></rect><path d="M75.87,214.38v-6.57A2.11,2.11,0,0,1,79,206l5.69,3.28,5.68,3.29a2.1,2.1,0,0,1,0,3.65l-5.68,3.28L79,222.78A2.12,2.12,0,0,1,75.87,221Z" style="fill: rgb(255, 255, 255); transform-origin: 83.6505px 214.387px;" id="elsgrd6qerpor" class="animable"></path><path d="M121.48,245.32s.28,0,.82-.1a4.57,4.57,0,0,0,2.15-1.08,4.52,4.52,0,0,0,1.5-3.51c0-1.58,0-3.4,0-5.45,0-8.22-.05-20.08-.08-34.74,0-7.34,0-15.37,0-24v-3.26a12.52,12.52,0,0,0,0-1.63,4.82,4.82,0,0,0-.44-1.52,5.14,5.14,0,0,0-3.69-2.87,9.14,9.14,0,0,0-1.67-.1H105.79l-30.43,0H44.79a15.37,15.37,0,0,0-2,.07,5,5,0,0,0-3.32,2,4.92,4.92,0,0,0-.85,1.77,6.91,6.91,0,0,0-.17,2v8.23q0,8.18,0,16.1c0,10.55,0,20.73,0,30.43,0,2.42,0,4.82,0,7.18v5.26a6,6,0,0,0,.13,1.66,4.27,4.27,0,0,0,1.83,2.59,4.2,4.2,0,0,0,1.48.62,8.57,8.57,0,0,0,1.62.09H50l24,0,34.74.08,9.44.05,2.46,0,.84,0-.84,0-2.46,0-9.44,0L74,245.51l-24,0H43.43a7.82,7.82,0,0,1-1.72-.1,4.73,4.73,0,0,1-1.63-.67,4.84,4.84,0,0,1-2-2.86,6.65,6.65,0,0,1-.14-1.77V227.7c0-9.7,0-19.88,0-30.43V172.94a7.74,7.74,0,0,1,.18-2.13,5.64,5.64,0,0,1,4.6-4.16,17.15,17.15,0,0,1,2.13-.07H120a9.46,9.46,0,0,1,1.75.11,6,6,0,0,1,1.66.6,5.58,5.58,0,0,1,2.35,2.53,5.44,5.44,0,0,1,.48,1.66,13.64,13.64,0,0,1,0,1.68v3.26c0,8.62,0,16.65,0,24,0,14.66-.06,26.52-.08,34.74,0,2,0,3.87,0,5.45a4.65,4.65,0,0,1-1.59,3.59,4.51,4.51,0,0,1-2.21,1.05,3.2,3.2,0,0,1-.62,0A1.11,1.11,0,0,1,121.48,245.32Z" style="fill: rgb(38, 50, 56); transform-origin: 82.0973px 206.047px;" id="el8zebzatfo1a" class="animable"></path><path d="M297.12,75.79h99a5.38,5.38,0,0,1,5.38,5.38v68a4.55,4.55,0,0,1-4.55,4.55H296.3a4.55,4.55,0,0,1-4.55-4.55v-68A5.38,5.38,0,0,1,297.12,75.79Z" style="fill: rgb(255, 255, 255); transform-origin: 346.625px 114.755px;" id="el9npwlykzfbh" class="animable"></path><path d="M297.12,75.79h99a5.38,5.38,0,0,1,5.38,5.38V93.59a0,0,0,0,1,0,0H291.74a0,0,0,0,1,0,0V81.16A5.38,5.38,0,0,1,297.12,75.79Z" style="fill: rgb(224, 224, 224); transform-origin: 346.62px 84.69px;" id="el2ovwpb83t48" class="animable"></path><path d="M306.35,85.62a3.25,3.25,0,1,1-3.25-3.25A3.25,3.25,0,0,1,306.35,85.62Z" style="fill: rgb(255, 255, 255); transform-origin: 303.1px 85.62px;" id="eljkeltlmiaxi" class="animable"></path><path d="M316.32,85.62a3.25,3.25,0,1,1-3.25-3.25A3.24,3.24,0,0,1,316.32,85.62Z" style="fill: rgb(255, 255, 255); transform-origin: 313.07px 85.62px;" id="elkd7trs05nmc" class="animable"></path><path d="M326.29,85.62a3.25,3.25,0,1,1-3.24-3.25A3.24,3.24,0,0,1,326.29,85.62Z" style="fill: rgb(255, 255, 255); transform-origin: 323.04px 85.62px;" id="elmoosq1377nl" class="animable"></path><rect x="301.57" y="103.61" width="39.65" height="39.65" rx="3.99" style="fill: rgb(26, 24, 24); transform-origin: 321.395px 123.435px;" id="elxfg7379ck9m" class="animable"></rect><path d="M390,111.79H353.26a2,2,0,0,1-2-2.05h0a2,2,0,0,1,2-2H390a2.05,2.05,0,0,1,2.05,2h0A2.05,2.05,0,0,1,390,111.79Z" style="fill: rgb(224, 224, 224); transform-origin: 371.655px 109.765px;" id="elyvteejx7eup" class="animable"></path><path d="M390,121.16H353.26a2,2,0,0,1-2-2h0a2,2,0,0,1,2-2H390a2.05,2.05,0,0,1,2.05,2h0A2.05,2.05,0,0,1,390,121.16Z" style="fill: rgb(224, 224, 224); transform-origin: 371.655px 119.16px;" id="eldg6jst7suf8" class="animable"></path><path d="M390,130.53H353.26a2,2,0,0,1-2-2.05h0a2,2,0,0,1,2-2H390a2.05,2.05,0,0,1,2.05,2h0A2.05,2.05,0,0,1,390,130.53Z" style="fill: rgb(224, 224, 224); transform-origin: 371.655px 128.505px;" id="el2d87q1xvop5" class="animable"></path><path d="M372,139.9H353.26a2,2,0,0,1-2-2.05h0a2,2,0,0,1,2-2H372a2,2,0,0,1,2,2h0A2,2,0,0,1,372,139.9Z" style="fill: rgb(224, 224, 224); transform-origin: 362.63px 137.875px;" id="elmjxclp0acko" class="animable"></path><path d="M397,153.68a9.07,9.07,0,0,0,.93-.13,4.56,4.56,0,0,0,2.35-1.35,4.61,4.61,0,0,0,1-1.74,7.83,7.83,0,0,0,.2-2.43q0-2.68,0-6.17c0-9.29-.05-22.72-.08-39.3,0-4.15,0-8.5,0-13q0-3.41,0-6.93a8.19,8.19,0,0,0-.4-3.43,5.1,5.1,0,0,0-3.94-3.1,10.79,10.79,0,0,0-1.81-.07H298.68a19.8,19.8,0,0,0-2.33.06A5.12,5.12,0,0,0,292,80.65c0,.73,0,1.55,0,2.32V110.5c0,11.94,0,23.46,0,34.43.17,2.66-.67,5.76,1.51,7.47a4.25,4.25,0,0,0,1.66.89,7.05,7.05,0,0,0,1.91.16h19l27.15,0,39.3.09,10.68,0,2.78,0,.95,0s-.32,0-.95,0l-2.78,0-10.68.05-39.3.08-27.15,0-15.12,0h-3.92a7.4,7.4,0,0,1-2-.17,4.75,4.75,0,0,1-1.84-1,4.82,4.82,0,0,1-1.68-3.74c0-1.36,0-2.72,0-4.09,0-11,0-22.49,0-34.43V92.29c0-3.09,0-6.19,0-9.32,0-.79,0-1.54,0-2.37a5.65,5.65,0,0,1,4.76-5,17.87,17.87,0,0,1,2.41-.07h34.58l34.42,0h27.47a10.88,10.88,0,0,1,1.88.08A5.53,5.53,0,0,1,401.3,79a5.61,5.61,0,0,1,.41,1.8c0,.62,0,1.19,0,1.79q0,3.52,0,6.93c0,4.52,0,8.87,0,13,0,16.58-.07,30-.09,39.3q0,3.48,0,6.17a7.85,7.85,0,0,1-.22,2.47,4.79,4.79,0,0,1-1.05,1.77,4.61,4.61,0,0,1-2.42,1.34A3.52,3.52,0,0,1,397,153.68Z" style="fill: rgb(38, 50, 56); transform-origin: 346.615px 114.599px;" id="elhz38tyd3g1u" class="animable"></path><g id="elamj8odszw2e"><g style="opacity: 0.3; transform-origin: 321.395px 130.706px;" class="animable"><path d="M301.57,132v7.4a3.84,3.84,0,0,0,3.84,3.84h31.9a3.91,3.91,0,0,0,3.91-3.91V127.44L332,118.85a2.55,2.55,0,0,0-3.65.19l-7.23,8.29L314,124a3.59,3.59,0,0,0-3.91.56Z" id="elkewvdew7ru" class="animable" style="transform-origin: 321.395px 130.706px;"></path></g></g><g id="el96tphy22b5e"><g style="opacity: 0.3; transform-origin: 319.51px 114.12px;" class="animable"><circle cx="319.51" cy="114.12" r="3.58" id="elpca2dsu17r" class="animable" style="transform-origin: 319.51px 114.12px;"></circle></g></g></g><g id="freepik--Character--inject-73" class="animable" style="transform-origin: 247.815px 273.379px;"><path d="M167.68,204.45c2.67-2.3,6.46-2.94,9.18-5.18s4-5.85,4.2-9.37a35.18,35.18,0,0,0-1.53-10.41L208.62,216c-2.31,4-4.8,8.08-8.42,11s-8.64,4.47-13,2.89-7.32-7-5.31-11.15c-3.91,3.63-10.7,3.7-14.51,0S163.63,207.93,167.68,204.45Z" style="fill: rgb(38, 50, 56); transform-origin: 186.6px 205.005px;" id="elk6mcm9dyn2n" class="animable"></path><path d="M251.74,97.78c7.05,5.16,8.22,10.29,8.5,13,.08.81-.06,1.83-.83,2.08a1.9,1.9,0,0,1-1.15-.1l-23.6-7.17" style="fill: rgb(38, 50, 56); transform-origin: 247.46px 105.343px;" id="elqmu49i7xug" class="animable"></path><path d="M186.53,189.84c-5.3-9.52-10.59-19.13-14.18-29.42s-5.44-21.39-3.69-32.15c.26-1.64,3.07-12.78,4.72-12.94,1.17-.11.08,10,.86,10.87,7.45,8.46,11.22,19.66,12.5,30.86a146.67,146.67,0,0,1-.21,32.78" style="fill: rgb(38, 50, 56); transform-origin: 177.775px 152.585px;" id="elj414uu806bc" class="animable"></path><path d="M197.74,247.7l-20.3-98.46c-6.15-26.64,4.23-52.43,31-57.84l2.51-.35a48.86,48.86,0,0,1,54.55,37.65c5.2,23.12,10.66,48.73,12.28,61.3,3.36,26-22,33.74-22,33.74s4.75,26.26,6.16,33.83l-39.25,5-9.45.85Z" style="fill: rgb(255, 191, 157); transform-origin: 226.905px 176.992px;" id="elwlekddqawgq" class="animable"></path><path d="M255.77,223.74s-16.24,3.29-35.24-5.2c0,0,10.9,18.38,36.49,12.36Z" style="fill: rgb(255, 154, 108); transform-origin: 238.775px 225.326px;" id="el8ytxd73u779" class="animable"></path><path d="M260.75,154a3.74,3.74,0,0,1-3,4.25,3.58,3.58,0,0,1-4.3-2.8,3.76,3.76,0,0,1,3-4.26A3.58,3.58,0,0,1,260.75,154Z" style="fill: rgb(38, 50, 56); transform-origin: 257.101px 154.72px;" id="elv1ave8x6u8o" class="animable"></path><path d="M261.63,141c-.39.55-3.49-1.13-7.48-.55s-6.63,3-7.14,2.56c-.24-.19.1-1.13,1.25-2.24a10.27,10.27,0,0,1,5.63-2.64,9.85,9.85,0,0,1,6,1C261.29,139.89,261.83,140.7,261.63,141Z" style="fill: rgb(38, 50, 56); transform-origin: 254.304px 140.542px;" id="elhih1pf2e1u" class="animable"></path><path d="M226.35,158.88a3.75,3.75,0,0,1-3,4.25,3.59,3.59,0,0,1-4.3-2.81,3.76,3.76,0,0,1,3.05-4.25A3.59,3.59,0,0,1,226.35,158.88Z" style="fill: rgb(38, 50, 56); transform-origin: 222.701px 159.605px;" id="elqa91s7d9lg7" class="animable"></path><path d="M222.64,147.43c-.39.55-3.5-1.13-7.49-.56s-6.63,3-7.13,2.56c-.25-.18.09-1.12,1.24-2.23a10.31,10.31,0,0,1,5.63-2.65,9.81,9.81,0,0,1,6,1C222.29,146.36,222.83,147.18,222.64,147.43Z" style="fill: rgb(38, 50, 56); transform-origin: 215.31px 146.961px;" id="ely9lntz6az1" class="animable"></path><path d="M241.31,176.07c-.05-.23,2.37-1,6.31-2.09,1-.25,1.94-.59,2-1.31s-.45-1.81-1.11-2.92l-4.12-7.34c-5.75-10.46-10.07-19.11-9.65-19.34s5.43,8.06,11.19,18.52l4,7.4c.55,1.1,1.4,2.32,1.1,3.92a2.6,2.6,0,0,1-1.47,1.73,6.92,6.92,0,0,1-1.69.49C243.86,175.92,241.35,176.29,241.31,176.07Z" style="fill: rgb(38, 50, 56); transform-origin: 242.902px 159.599px;" id="elzm9hgm803ol" class="animable"></path><path d="M222.16,134.76c-.4,1.1-4.42.57-9.15,1.14s-8.56,1.86-9.19.87c-.28-.47.39-1.5,1.93-2.56a16,16,0,0,1,14-1.53C221.46,133.38,222.33,134.24,222.16,134.76Z" style="fill: rgb(38, 50, 56); transform-origin: 212.969px 134.43px;" id="elxyfsh0yqht" class="animable"></path><path d="M261.23,134.41c-.68,1-4.07.61-8,1.18s-7.11,1.74-8,.91c-.41-.41,0-1.4,1.28-2.48a13.45,13.45,0,0,1,12.88-1.68C260.93,133.05,261.53,133.91,261.23,134.41Z" style="fill: rgb(38, 50, 56); transform-origin: 253.191px 134.099px;" id="eldbs0kj1nz6u" class="animable"></path><path d="M182.29,168.17c-.47-.13-18.59-2.75-15.51,14.93S187,194,186.92,193.52,182.29,168.17,182.29,168.17Z" style="fill: rgb(255, 191, 157); transform-origin: 176.674px 181.577px;" id="el9eguqf8xyr" class="animable"></path><path d="M180.35,187.77c-.08-.05-.27.27-.75.6a3.09,3.09,0,0,1-2.29.44c-2-.35-4.08-3.05-4.72-6.22a10.55,10.55,0,0,1,.09-4.56,3.63,3.63,0,0,1,1.91-2.76,1.58,1.58,0,0,1,2,.52c.33.46.27.83.37.84s.33-.36.06-1.07a2,2,0,0,0-.89-1,2.34,2.34,0,0,0-1.78-.15c-1.35.33-2.35,1.8-2.74,3.3a10.64,10.64,0,0,0-.2,5.11c.73,3.54,3.14,6.56,5.82,6.85a3.33,3.33,0,0,0,2.73-1C180.4,188.2,180.42,187.79,180.35,187.77Z" style="fill: rgb(255, 154, 108); transform-origin: 175.785px 181.994px;" id="elvy4lknlurpd" class="animable"></path><path d="M248.74,101.56c2.57-2.1-7.7-9.78-15.31-11.67C221.94,87,205.2,87,195.92,91.6c-11.16,5.51-19.87,13.16-23.81,25s-3.87,24.7-1.28,36.87c.79,3.72,1.89,7.54,4.46,10.33,3.18,3.45,7.06,4.73,9.15,10.46.68,1.88,1.21,3.86,2.82,5.05,3.86,2.84,7.22-1.11,8.44-4.68,2.61-7.63,1.53-16,.41-23.94-.79-5.68-1.62-11.47-4.2-16.58-1.4-2.78-3.3-5.31-4.54-8.17s-1.78-6.26-.37-9a11.25,11.25,0,0,1,1.16-1.71,18.71,18.71,0,0,1,17.63-6.83c10.58,1.69,28.52,3.82,32.33-.36,5.49-6,6.43-9.47,6.43-9.47Z" style="fill: rgb(38, 50, 56); transform-origin: 209.072px 134.09px;" id="elazoukuhtq3m" class="animable"></path><path d="M229.32,180.81c.6-.15,1.37,3.9,5.38,6.12s8.23,1,8.37,1.52c.1.24-.81,1-2.63,1.36a10.22,10.22,0,0,1-6.94-1,8.91,8.91,0,0,1-4.25-5.17C228.77,181.93,229,180.84,229.32,180.81Z" style="fill: rgb(38, 50, 56); transform-origin: 236.026px 185.417px;" id="elmh5bldwwvja" class="animable"></path><path d="M169.9,169.68c-.39-.24-.9-.21-1.27-.46-24.49-16-11.43-38.15-12.24-44.08-1.13-8.22-9,3.88-12.18-6.63-4.28-13.92,9.78-22.78,27.32-32.32,7.35-4,26.39-8.3,43.86-7.86,15.59.4,27.55,9.22,34.73,16.38,0,0,3.81,1.06,4.94,2.46,3.53,4.41,2.7,6.64,2.7,6.64s-36.32-11.15-60,16.59-15,46.34-22.33,47.93Z" style="fill: rgb(69, 90, 100); transform-origin: 200.64px 123.989px;" id="elgnj4vsmbfy9" class="animable"></path><path d="M179.88,97.17a11.4,11.4,0,0,1-1.35.88c-.45.27-1,.6-1.59,1s-1.32.86-2,1.43a50,50,0,0,0-5,4.16,55,55,0,0,0-5.29,5.92,54.28,54.28,0,0,0-4.29,6.67,50.49,50.49,0,0,0-2.69,5.9c-.36.86-.59,1.66-.83,2.35s-.42,1.3-.56,1.8a9.09,9.09,0,0,1-.5,1.54,11.5,11.5,0,0,1,.3-1.59c.11-.51.26-1.13.48-1.83s.43-1.53.77-2.4a45.14,45.14,0,0,1,2.61-6,47.43,47.43,0,0,1,9.67-12.71,46.58,46.58,0,0,1,5.09-4.12c.75-.55,1.48-1,2.1-1.37s1.18-.71,1.65-1A8.89,8.89,0,0,1,179.88,97.17Z" style="fill: rgb(38, 50, 56); transform-origin: 167.83px 112.995px;" id="elszuiupgagc" class="animable"></path><path d="M251.1,95a1.42,1.42,0,0,1-.33-.06l-1-.2c-.84-.2-2.08-.44-3.68-.75s-3.57-.6-5.88-.81a59.73,59.73,0,0,0-7.84-.29,61.21,61.21,0,0,0-19.94,3.89A64.71,64.71,0,0,0,201.65,102a63.54,63.54,0,0,0-10.29,7.8,61.05,61.05,0,0,0-8.43,9.78,65,65,0,0,0-5.78,10.56,88.24,88.24,0,0,0-5.66,19.59c-1,5.74-1.44,10.44-1.72,13.68-.13,1.6-.23,2.86-.3,3.75,0,.4-.07.72-.09,1a1.68,1.68,0,0,1,0,.33,1,1,0,0,1,0-.33c0-.25,0-.57,0-1,0-.86.09-2.12.2-3.75.23-3.26.61-8,1.57-13.74A87,87,0,0,1,176.71,130a63.68,63.68,0,0,1,5.8-10.65,60.75,60.75,0,0,1,8.49-9.88,62.87,62.87,0,0,1,21.31-13.11,60.91,60.91,0,0,1,20.11-3.81,59.2,59.2,0,0,1,7.87.37c2.31.24,4.28.6,5.89.9s2.83.62,3.66.85l.94.25A1.19,1.19,0,0,1,251.1,95Z" style="fill: rgb(38, 50, 56); transform-origin: 210.233px 130.514px;" id="elel7lw31e8i" class="animable"></path><path d="M179.65,158.87a8.08,8.08,0,0,1-4.88.29,8.23,8.23,0,0,1-4.41-2.09,26.71,26.71,0,0,0,4.51,1.58A26.49,26.49,0,0,0,179.65,158.87Z" style="fill: rgb(38, 50, 56); transform-origin: 175.005px 158.239px;" id="el85pofzvkdtt" class="animable"></path><path d="M186.07,141.52a4.81,4.81,0,0,1-1.89-.07,13.77,13.77,0,0,1-4.32-1.47,13.92,13.92,0,0,1-3.62-2.78,4.89,4.89,0,0,1-1.1-1.53,18.84,18.84,0,0,0,10.93,5.85Z" style="fill: rgb(38, 50, 56); transform-origin: 180.605px 138.626px;" id="el8liz4bkacy" class="animable"></path><path d="M198.52,119.31a42.55,42.55,0,0,0-4.17-4.28,43.84,43.84,0,0,0-5-3.25,12.88,12.88,0,0,1,5.35,2.85A12.7,12.7,0,0,1,198.52,119.31Z" style="fill: rgb(38, 50, 56); transform-origin: 193.935px 115.545px;" id="elhwxxtpclr" class="animable"></path><path d="M213.05,108.36a48.41,48.41,0,0,0-2.55-4.83,51.07,51.07,0,0,0-3.48-4.2,14.18,14.18,0,0,1,6,9Z" style="fill: rgb(38, 50, 56); transform-origin: 210.035px 103.845px;" id="elfsk4bfucfw" class="animable"></path><path d="M236.83,102.39a15.07,15.07,0,0,0-1.18-5.28,14.57,14.57,0,0,0-3.38-4.21c0-.06.62.19,1.42.84a9.52,9.52,0,0,1,3.36,7A3.49,3.49,0,0,1,236.83,102.39Z" style="fill: rgb(38, 50, 56); transform-origin: 234.67px 97.6407px;" id="elm6opz78zswi" class="animable"></path><path d="M252,103.2a35.17,35.17,0,0,0-.31-4.23,36,36,0,0,0-1.34-4A9,9,0,0,1,252,103.2Z" style="fill: rgb(38, 50, 56); transform-origin: 251.359px 99.085px;" id="elf3b3znh0frb" class="animable"></path><path d="M229.31,262.65c-.05,0,0-.78-.05-2.2a32.85,32.85,0,0,0-.8-5.91,53,53,0,0,0-2.74-8.43c-1.26-3.1-2.87-6.42-4.46-10a68.19,68.19,0,0,1-3.69-9.79l0-.19.17-.09a17.14,17.14,0,0,0,5.49-4.51l.1-.13.15.08a10.48,10.48,0,0,0,5.1,1.3h.09l0,.08a17.3,17.3,0,0,0,2.09,2.94c.55.64.88,1,.86,1s-.1-.06-.27-.2-.41-.37-.7-.67a15.19,15.19,0,0,1-2.23-2.91l.13.08a10.63,10.63,0,0,1-5.3-1.25l.25,0a17.15,17.15,0,0,1-5.58,4.69l.12-.28a72.63,72.63,0,0,0,3.7,9.7c1.59,3.53,3.19,6.86,4.43,10a49.94,49.94,0,0,1,2.66,8.53,29.55,29.55,0,0,1,.64,6,16.26,16.26,0,0,1-.07,1.64A1.84,1.84,0,0,1,229.31,262.65Z" style="fill: rgb(255, 154, 108); transform-origin: 224.595px 242.025px;" id="elfythbk743cl" class="animable"></path><path d="M149.67,265.17l40.76-24.47s31.62,20.83,52.25,13.19c13.93-5.15,13.93-24,13.93-24l40.05.14,35.45,108.54,9.07,129.89-177.39,0L156.64,316Z" style="fill: rgb(26, 24, 24); transform-origin: 245.425px 349.175px;" id="elad93uy24jpo" class="animable"></path><g id="eldr7m4uwrdw"><g style="opacity: 0.3; transform-origin: 250.945px 435.532px;" class="animable"><path d="M162.15,436.61c12.39,10.5,28.58,15.65,44.73,17.32s32.43.09,48.59-1.48c27.9-2.72,56.37-2,84.27-4.68-.79-7-1.49-24.38-2.28-31.35L162.15,429Z" id="el8e9uggmwcx" class="animable" style="transform-origin: 250.945px 435.532px;"></path></g></g><path d="M147.62,384.13s-3.84-1.85-5.74.07A20.45,20.45,0,0,0,138.6,389s-6.17-1.85-8.73,3.27c0,0-4.61,2.91-1.88,8.63,0,0-4.93,6.88-1,12.83a8.48,8.48,0,0,0,1.61,1.91s1.85,7.17,4.32,8.37,11.29,3.89,11.59-.15-1.28-3.67-1.28-3.67,10.43,5.65,15.05,9.81,16.76,10.32,24.25,10.3,4.29-16.12,4.29-16.12Z" style="fill: rgb(255, 191, 157); transform-origin: 156.484px 411.814px;" id="eli3qefeukaih" class="animable"></path><path d="M314.8,307.8c-.49,2.45-.89,15.67-.89,15.67l8.65,54.71c-17.07,3.54-101,20.56-101,20.56L213.73,440s132-2.44,146.72-16.16,7.25-69.22,7.25-74.61-3.63-41.06-3.63-41.06Z" style="fill: rgb(255, 191, 157); transform-origin: 291.663px 373.9px;" id="elvu4x0da61w" class="animable"></path><path d="M131.28,401.75a8,8,0,0,1,1.34.53l3.58,1.63,5.28,2.47,1.52.72.79.37a1.5,1.5,0,0,1,.78.69.79.79,0,0,1,0,.64,1,1,0,0,1-.4.44,2.23,2.23,0,0,1-1,.3,9.47,9.47,0,0,1-1.92.07c-2.59-.17-4.89-1-7-1.34a6.87,6.87,0,0,0-3,0,3.28,3.28,0,0,0-2,1.54,6.76,6.76,0,0,0-.78,3.71,10,10,0,0,1,0,1.44,6.55,6.55,0,0,1-.22-1.43,6.77,6.77,0,0,1,.67-3.9,3.63,3.63,0,0,1,2.16-1.77,7.14,7.14,0,0,1,3.19,0c2.19.33,4.5,1.14,7,1.3a9.16,9.16,0,0,0,1.82-.06c.57,0,1.15-.35,1-.67s-.83-.55-1.32-.81l-1.51-.74L136,404.24l-3.51-1.77A7.35,7.35,0,0,1,131.28,401.75Z" style="fill: rgb(255, 154, 108); transform-origin: 136.417px 408.355px;" id="elwga7ezmkwh8" class="animable"></path><path d="M147.82,398.74a25.84,25.84,0,0,1-2.49-1.38,40.83,40.83,0,0,0-12.84-4.56,25.47,25.47,0,0,1-2.8-.51,11.5,11.5,0,0,1,2.86.15,32.67,32.67,0,0,1,6.73,1.61,32.19,32.19,0,0,1,6.23,3A10.92,10.92,0,0,1,147.82,398.74Z" style="fill: rgb(255, 154, 108); transform-origin: 138.755px 395.5px;" id="el84ew9zn8pip" class="animable"></path><path d="M146.8,391.63a27.52,27.52,0,0,1-4.06-1.53,18.25,18.25,0,0,0-2.9-.88,5.5,5.5,0,0,1-1.24-.27c0-.07.49-.17,1.3-.1a11.17,11.17,0,0,1,3,.76A14.21,14.21,0,0,1,146.8,391.63Z" style="fill: rgb(255, 154, 108); transform-origin: 142.7px 390.228px;" id="el8wv872h4co" class="animable"></path><path d="M144.1,420.62a4.82,4.82,0,0,1-1.81-.08,19.5,19.5,0,0,1-4.19-1.2,35.87,35.87,0,0,1-3.93-1.85,6.23,6.23,0,0,1-1.53-1c.08-.16,2.54,1.06,5.65,2.33a31.61,31.61,0,0,0,4.07,1.32A10.08,10.08,0,0,1,144.1,420.62Z" style="fill: rgb(255, 154, 108); transform-origin: 138.37px 418.573px;" id="elsthrhp6vb7g" class="animable"></path><path d="M137.23,418.47c.13,0-.11,1-1,1.87s-1.9,1-1.93.88.79-.51,1.58-1.26S137.09,418.41,137.23,418.47Z" style="fill: rgb(255, 154, 108); transform-origin: 135.781px 419.862px;" id="eltrnavrjpzef" class="animable"></path><path d="M295.57,230s31.18-1.27,47.08,20.63C358.06,271.87,370.16,316,370.16,316l-59.53,7.93-8.82-57.4Z" style="fill: rgb(26, 24, 24); transform-origin: 332.865px 276.958px;" id="el5jy9pwb2ze" class="animable"></path><path d="M345.72,403.24c-.1,0-.51-1.95-1.74-4.92a25.85,25.85,0,0,0-1.11-2.38c-.41-.85-.94-1.71-1.48-2.62a38.41,38.41,0,0,0-4.2-5.46,39.26,39.26,0,0,0-5.18-4.55c-.88-.6-1.7-1.19-2.53-1.64a24.81,24.81,0,0,0-2.3-1.27c-2.89-1.42-4.83-1.95-4.79-2.06a7.59,7.59,0,0,1,1.36.35,14.54,14.54,0,0,1,1.57.53c.6.24,1.29.48,2,.85a24.36,24.36,0,0,1,2.36,1.22c.85.45,1.69,1,2.58,1.63a33.74,33.74,0,0,1,9.52,10.15c.53.93,1.06,1.81,1.45,2.68a24.2,24.2,0,0,1,1.07,2.43c.32.75.52,1.46.72,2.08s.33,1.15.43,1.59A6.37,6.37,0,0,1,345.72,403.24Z" style="fill: rgb(255, 154, 108); transform-origin: 334.055px 390.79px;" id="elgl5xlddhhvi" class="animable"></path><path d="M301.81,266.51s.13.26.34.75.52,1.28.9,2.2c.73,1.92,1.7,4.73,2.7,8.27a257.87,257.87,0,0,1,5.89,28.1c1.79,11.07,3.06,21.14,4,28.43.44,3.6.8,6.54,1,8.63.11,1,.2,1.77.26,2.35a4.22,4.22,0,0,1,.06.82,4.49,4.49,0,0,1-.16-.81l-.36-2.33c-.29-2.09-.71-5-1.21-8.62-1-7.27-2.33-17.33-4.12-28.39s-3.78-21-5.73-28.08c-.94-3.54-1.86-6.37-2.53-8.3l-.81-2.23A4.78,4.78,0,0,1,301.81,266.51Z" style="fill: rgb(38, 50, 56); transform-origin: 309.386px 306.285px;" id="elagf4fyjx0b7" class="animable"></path><path d="M195.93,275.82l-6.07,64.39-9.3-16.4-47.92,5.7c.49,2.45,17.55,62.37,24.9,79s27.91,46.23,50.93,35.6S230,349.76,230,340.21s-4.61-66.51-4.61-66.51" style="fill: rgb(255, 191, 157); transform-origin: 181.33px 360.029px;" id="elbtnyhp04ker" class="animable"></path><path d="M225.41,273.7s.05.4.12,1.18.17,1.95.3,3.47c.25,3.06.62,7.56,1.1,13.34s1,12.89,1.62,21.12q.44,6.18.92,13.19c.29,4.67.66,9.61.73,14.81.09,10.4,0,21.79-.74,34a264.18,264.18,0,0,1-4.7,38.72,85.64,85.64,0,0,1-6.53,20.08,27.19,27.19,0,0,1-6.53,8.76,15.24,15.24,0,0,1-2.32,1.57,24.34,24.34,0,0,1-2.56,1.14c-.87.35-1.78.58-2.68.85a24.23,24.23,0,0,1-2.78.51,23,23,0,0,1-5.68,0,27.36,27.36,0,0,1-5.56-1.36,37.31,37.31,0,0,1-10-5.69,73,73,0,0,1-15.56-17.57,94.83,94.83,0,0,1-6.41-11.4c-1.83-3.93-3.32-8-4.73-12-2.82-8-5.36-16-7.8-23.84s-4.74-15.51-6.94-23-4.35-14.83-6.25-22l-.06-.25.26,0,47.92-5.67h.13l.07.11L190,340.12l-.34.08c1.92-20,3.46-36.07,4.53-47.18.54-5.54,1-9.84,1.25-12.76.15-1.45.26-2.56.34-3.32s.13-1.12.13-1.12,0,.38-.08,1.13-.16,1.86-.29,3.31c-.26,2.93-.65,7.23-1.15,12.78-1,11.11-2.52,27.21-4.37,47.19l0,.57-.29-.5-9.32-16.39.2.1-47.91,5.73.2-.28c1.89,7.13,4.06,14.48,6.26,22s4.52,15.2,7,23,5,15.8,7.8,23.81c1.41,4,2.9,8,4.71,11.94A94.64,94.64,0,0,0,165,421.55,72.59,72.59,0,0,0,180.42,439a36.71,36.71,0,0,0,9.87,5.62,27.27,27.27,0,0,0,5.45,1.33,22.49,22.49,0,0,0,5.56,0,24.81,24.81,0,0,0,2.71-.49c.88-.27,1.78-.5,2.63-.83a24.34,24.34,0,0,0,2.5-1.11,16,16,0,0,0,2.24-1.52,26.76,26.76,0,0,0,6.4-8.6,85.09,85.09,0,0,0,6.51-19.95A264.43,264.43,0,0,0,229,374.78c.72-12.19.87-23.58.8-34-.05-5.19-.42-10.13-.69-14.8s-.61-9.07-.88-13.19c-.6-8.23-1.11-15.32-1.54-21.12s-.76-10.29-1-13.35c-.11-1.52-.2-2.68-.25-3.47S225.41,273.7,225.41,273.7Z" style="fill: rgb(255, 154, 108); transform-origin: 181.299px 360.158px;" id="el9drcl2xeadf" class="animable"></path><path d="M189.72,338.54a4,4,0,0,1-.05.77c-.07.49-.1,1.24-.28,2.17a46.14,46.14,0,0,1-2,7.82,77.48,77.48,0,0,1-4.86,10.94c-2.1,4-4.64,8.23-7.27,12.7a125.83,125.83,0,0,0-6.76,12.94,57.49,57.49,0,0,0-3.72,11.28,39.47,39.47,0,0,0-.86,8c0,.95.05,1.68.05,2.18a5,5,0,0,1,0,.77,3.3,3.3,0,0,1-.1-.76c0-.5-.16-1.24-.15-2.19a36.76,36.76,0,0,1,.7-8,55.52,55.52,0,0,1,3.64-11.4,118.81,118.81,0,0,1,6.75-13c2.63-4.48,5.18-8.71,7.3-12.67A80.94,80.94,0,0,0,187,349.18a50.54,50.54,0,0,0,2.15-7.73c.21-.93.28-1.66.37-2.16A4.46,4.46,0,0,1,189.72,338.54Z" style="fill: rgb(255, 154, 108); transform-origin: 176.716px 373.325px;" id="el0thfigxnmfzm" class="animable"></path><path d="M149.67,265.17c-1.31.26-23.79,10.65-23.64,45.28.12,25.85,7.05,50.65,7.05,50.65l54.16-25.5Z" style="fill: rgb(26, 24, 24); transform-origin: 156.635px 313.135px;" id="el8hni2shrfv6" class="animable"></path><path d="M225.41,273.7s6.38-6.59,6.38-15.2a55.19,55.19,0,0,0-3.31-17.21s-1.07-9-1.75-12.55l2.91-5.49s7.94,3.48,9.26-1.65l-4.67-6.4a7.93,7.93,0,0,0-4.25-2.95l-7-2a8.76,8.76,0,0,0-7.26,1.16L207.46,217l5.13-10.59,8.61-1.82s12.24,5.29,14.56-1.66l-10.26-6-19.53.34s-4.47,5.46-5.46,7.11-4.22,7.35-4.22,7.35l-4.89-12.64s.15-8.07,0-14.79c-.21-7.42-4.57-9.9-9-7.42-.44.24-2.43,20.11-1.44,24.75s9.54,39.07,9.54,39.07,3,7.84,4.15,10.15a24.1,24.1,0,0,1,2.44,11c.2,3.66-1.19,15-1.19,15" style="fill: rgb(255, 191, 157); transform-origin: 209.794px 226.4px;" id="el26fzwnp9tp7" class="animable"></path><path d="M195.83,276.91s0-.22,0-.64.11-1.08.2-1.9c.17-1.67.43-4.14.66-7.35a45.26,45.26,0,0,0,.16-5.35,27.33,27.33,0,0,0-.76-6.32A21.73,21.73,0,0,0,195,252c-.52-1.1-1.09-2.26-1.59-3.47-1-2.43-2-5-3.09-7.76h0c-1.41-5.71-3-12-4.63-18.81q-1.26-5.12-2.6-10.58c-.45-1.83-.9-3.68-1.37-5.56-.23-.95-.46-1.89-.69-2.85-.12-.48-.25-.95-.35-1.44s-.13-1-.17-1.51a100.48,100.48,0,0,1,.37-12.32c.16-2.1.34-4.22.57-6.37.12-1.07.24-2.14.41-3.23,0-.27.08-.54.14-.82a2.09,2.09,0,0,1,0-.21l0-.11,0-.07.08-.12a.24.24,0,0,1,.13-.1l.1,0,.19-.09a7.16,7.16,0,0,1,1.58-.6,5.4,5.4,0,0,1,3.41.2,5.6,5.6,0,0,1,2.56,2.3,12.74,12.74,0,0,1,1.5,6.68q0,6.88,0,14l0-.1c1.55,4,3.21,8.29,4.89,12.65l-.47,0,4.28-7.43c1.66-2.46,3.55-4.73,5.43-7.07l.07-.09H206l3.66-.07,15.87-.26h.08l.06,0,10.26,6,.18.11L236,203a5.11,5.11,0,0,1-2.84,3.14,9.41,9.41,0,0,1-4.15.6,25.27,25.27,0,0,1-7.91-1.93h.15l-8.61,1.82.17-.13-5.14,10.59-.35-.31,8.44-5.64a9,9,0,0,1,4.78-1.4,9.64,9.64,0,0,1,2.45.33l2.3.65,4.53,1.28a8.23,8.23,0,0,1,4,2.37c1.9,2.42,3.55,4.82,5.26,7.12l.06.08,0,.1a3.8,3.8,0,0,1-1.67,2.3,5,5,0,0,1-2.7.64,14.2,14.2,0,0,1-5.17-1.17l.24-.08c-1,2-2,3.74-2.91,5.48l0-.12c.78,4.49,1.25,8.69,1.72,12.57v0a56.42,56.42,0,0,1,3.16,14.24,23.5,23.5,0,0,1-.13,5.91,21.89,21.89,0,0,1-1.37,4.73,26.63,26.63,0,0,1-3.36,5.83c-.47.61-.84,1.05-1.1,1.34a5.24,5.24,0,0,1-.41.42l.37-.45c.26-.29.61-.75,1.07-1.36a28.12,28.12,0,0,0,3.28-5.84,22.53,22.53,0,0,0,1.32-4.71,24.06,24.06,0,0,0,.09-5.85,57.14,57.14,0,0,0-3.21-14.14v0c-.49-3.88-1-8.08-1.77-12.54v-.06l0-.06,2.9-5.49.08-.15.16.07a14.4,14.4,0,0,0,5,1.12,4.73,4.73,0,0,0,2.49-.59,3.45,3.45,0,0,0,1.49-2.07l0,.18c-1.71-2.29-3.41-4.74-5.25-7.08a7.76,7.76,0,0,0-3.79-2.24l-4.53-1.27a17.43,17.43,0,0,0-4.63-.95,8.58,8.58,0,0,0-4.54,1.33l-8.41,5.65-.73.49.38-.79,5.13-10.6,0-.11.12,0,8.6-1.83h.08l.08,0A24.94,24.94,0,0,0,229,206.2a8.83,8.83,0,0,0,3.92-.56,4.61,4.61,0,0,0,2.56-2.83l.11.31-10.26-6,.13,0-15.87.27-3.66.07.2-.1c-1.86,2.32-3.78,4.63-5.39,7-1.45,2.53-2.88,5-4.27,7.42l-.27.47-.19-.51-4.88-12.64,0-.05v0q0-7.11,0-14a12.24,12.24,0,0,0-1.43-6.44,5.06,5.06,0,0,0-2.33-2.11,4.91,4.91,0,0,0-3.1-.18,6.53,6.53,0,0,0-1.49.56l-.18.09-.09,0,0,0c.08.18-.16-.24-.09-.12s.11.14.11.12a.05.05,0,0,0,0,0v0l0,.08a1.29,1.29,0,0,0,0,.19c-.06.26-.1.53-.14.79-.16,1.07-.28,2.15-.4,3.22-.24,2.13-.43,4.25-.59,6.35a103.79,103.79,0,0,0-.39,12.25,11.48,11.48,0,0,0,.17,1.45c.09.48.22,1,.33,1.44.24,1,.47,1.9.7,2.84q.67,2.84,1.35,5.56,1.32,5.48,2.57,10.59c1.65,6.8,3.18,13.1,4.56,18.82v0c1,2.74,2,5.34,3,7.76.5,1.22,1.05,2.35,1.58,3.48a22.2,22.2,0,0,1,1.17,3.41,27.33,27.33,0,0,1,.73,6.37,45.16,45.16,0,0,1-.2,5.38c-.27,3.2-.55,5.67-.75,7.34q-.16,1.23-.24,1.89C195.87,276.7,195.83,276.91,195.83,276.91Z" style="fill: rgb(255, 154, 108); transform-origin: 209.8px 226.352px;" id="elr6dtbjjc8fn" class="animable"></path><path d="M227.81,212.53a9,9,0,0,0-2.17.81,37.91,37.91,0,0,0-4.46,3.48c-1.72,1.42-3.29,2.68-4.44,3.57a10.73,10.73,0,0,1-1.94,1.37,10.47,10.47,0,0,1,1.7-1.65c1.09-1,2.63-2.27,4.35-3.7a27.89,27.89,0,0,1,4.62-3.4A3.44,3.44,0,0,1,227.81,212.53Z" style="fill: rgb(255, 154, 108); transform-origin: 221.305px 217.125px;" id="els0tbmbtobx" class="animable"></path><path d="M171.88,291c.14-.05,3.76,9.93,8.09,22.29s7.74,22.41,7.6,22.46-3.75-9.93-8.09-22.29S171.75,291,171.88,291Z" style="fill: rgb(38, 50, 56); transform-origin: 179.725px 313.375px;" id="elw0cisretmta" class="animable"></path></g><defs>     <filter id="active" height="200%">         <feMorphology in="SourceAlpha" result="DILATED" operator="dilate" radius="2"></feMorphology>                <feFlood flood-color="#32DFEC" flood-opacity="1" result="PINK"></feFlood>        <feComposite in="PINK" in2="DILATED" operator="in" result="OUTLINE"></feComposite>        <feMerge>            <feMergeNode in="OUTLINE"></feMergeNode>            <feMergeNode in="SourceGraphic"></feMergeNode>        </feMerge>    </filter>    <filter id="hover" height="200%">        <feMorphology in="SourceAlpha" result="DILATED" operator="dilate" radius="2"></feMorphology>                <feFlood flood-color="#ff0000" flood-opacity="0.5" result="PINK"></feFlood>        <feComposite in="PINK" in2="DILATED" operator="in" result="OUTLINE"></feComposite>        <feMerge>            <feMergeNode in="OUTLINE"></feMergeNode>            <feMergeNode in="SourceGraphic"></feMergeNode>        </feMerge>            <feColorMatrix type="matrix" values="0   0   0   0   0                0   1   0   0   0                0   0   0   0   0                0   0   0   1   0 "></feColorMatrix>    </filter></defs></svg>